<svg id="_x30_3.C" enable-background="new 0 0 100 100" height="512" viewBox="0 0 100 100" width="512" xmlns="http://www.w3.org/2000/svg"><path id="Icon_1_" d="m82.492 62.585c-.25 5.415-1.71 10.198-4.382 14.349s-6.422 7.366-11.25 9.646-10.34 3.42-16.539 3.42c-10.225 0-18.277-3.331-24.155-9.993s-8.818-16.068-8.818-28.216v-3.848c0-7.623 1.327-14.295 3.981-20.013s6.475-10.135 11.463-13.253 10.76-4.677 17.315-4.677c9.441 0 17.03 2.485 22.766 7.455s8.996 11.819 9.78 20.548h-18.705c-.143-4.738-1.336-8.141-3.58-10.207s-5.665-3.1-10.261-3.1c-4.667 0-8.087 1.746-10.261 5.237-2.173 3.492-3.313 9.067-3.42 16.727v5.504c0 8.301 1.042 14.233 3.126 17.796s5.674 5.344 10.768 5.344c4.311 0 7.606-1.015 9.886-3.046s3.491-5.255 3.634-9.673z" fill="#2196f3"/></svg>